M48
; DRILL file {KiCad (6.0.0)} date Wed Dec 29 03:18:01 2021
; FORMAT={-:-/ absolute / metric / decimal}
; #@! TF.CreationDate,2021-12-29T03:18:01-05:00
; #@! TF.GenerationSoftware,Kicad,Pcbnew,(6.0.0)
; #@! TF.FileFunction,NonPlated,1,2,NPTH
FMAT,2
METRIC
; #@! TA.AperFunction,NonPlated,NPTH,ComponentDrill
T1C0.500
%
G90
G05
T1
X48.0Y-61.249
X48.0Y-63.251
X48.0Y-85.749
X48.0Y-87.751
X49.0Y-61.249
X49.0Y-63.251
X49.0Y-85.749
X49.0Y-87.751
X50.0Y-61.249
X50.0Y-63.251
X50.0Y-85.749
X50.0Y-87.751
X51.0Y-61.249
X51.0Y-63.251
X51.0Y-85.749
X51.0Y-87.751
X52.0Y-61.249
X52.0Y-63.251
X52.0Y-85.749
X52.0Y-87.751
X57.249Y-41.75
X57.249Y-42.75
X57.249Y-66.25
X57.249Y-67.25
X57.249Y-90.75
X57.249Y-91.75
X57.249Y-43.75
X57.249Y-44.75
X57.249Y-45.75
X57.249Y-68.25
X57.249Y-69.25
X57.249Y-70.25
X57.249Y-92.75
X57.249Y-93.75
X57.249Y-94.75
X57.249Y-54.25
X57.249Y-55.25
X57.249Y-56.25
X57.249Y-57.25
X57.249Y-58.25
X57.249Y-78.75
X57.249Y-79.75
X57.249Y-80.75
X57.249Y-81.75
X57.249Y-82.75
X57.249Y-103.25
X57.249Y-104.25
X57.249Y-105.25
X57.249Y-106.25
X57.249Y-107.25
X59.251Y-90.75
X59.251Y-41.75
X59.251Y-42.75
X59.251Y-43.75
X59.251Y-44.75
X59.251Y-45.75
X59.251Y-66.25
X59.251Y-67.25
X59.251Y-68.25
X59.251Y-69.25
X59.251Y-70.25
X59.251Y-91.75
X59.251Y-92.75
X59.251Y-93.75
X59.251Y-94.75
X59.251Y-54.25
X59.251Y-55.25
X59.251Y-56.25
X59.251Y-78.75
X59.251Y-79.75
X59.251Y-80.75
X59.251Y-103.25
X59.251Y-104.25
X59.251Y-105.25
X59.251Y-57.25
X59.251Y-58.25
X59.251Y-81.75
X59.251Y-82.75
X59.251Y-106.25
X59.251Y-107.25
X64.5Y-61.249
X64.5Y-63.251
X64.5Y-85.749
X64.5Y-87.751
X65.5Y-61.249
X65.5Y-63.251
X65.5Y-85.749
X65.5Y-87.751
X66.5Y-61.249
X66.5Y-63.251
X66.5Y-85.749
X66.5Y-87.751
X67.5Y-61.249
X67.5Y-63.251
X67.5Y-85.749
X67.5Y-87.751
X68.5Y-61.249
X68.5Y-63.251
X68.5Y-85.749
X68.5Y-87.751
X73.749Y-57.25
X73.749Y-58.25
X73.749Y-81.75
X73.749Y-82.75
X73.749Y-106.25
X73.749Y-107.25
X73.749Y-54.25
X73.749Y-55.25
X73.749Y-56.25
X73.749Y-78.75
X73.749Y-79.75
X73.749Y-80.75
X73.749Y-104.25
X73.749Y-105.25
X73.749Y-103.25
X73.749Y-41.75
X73.749Y-42.75
X73.749Y-43.75
X73.749Y-44.75
X73.749Y-45.75
X73.749Y-66.25
X73.749Y-67.25
X73.749Y-68.25
X73.749Y-69.25
X73.749Y-70.25
X73.749Y-90.75
X73.749Y-91.75
X73.749Y-92.75
X73.749Y-93.75
X73.749Y-94.75
X75.751Y-66.25
X75.751Y-90.75
X75.751Y-41.75
X75.751Y-42.75
X75.751Y-67.25
X75.751Y-91.75
X75.751Y-43.75
X75.751Y-44.75
X75.751Y-68.25
X75.751Y-69.25
X75.751Y-92.75
X75.751Y-93.75
X75.751Y-45.75
X75.751Y-70.25
X75.751Y-94.75
X75.751Y-54.25
X75.751Y-78.75
X75.751Y-103.25
X75.751Y-55.25
X75.751Y-79.75
X75.751Y-104.25
X75.751Y-56.25
X75.751Y-57.25
X75.751Y-80.75
X75.751Y-81.75
X75.751Y-105.25
X75.751Y-106.25
X75.751Y-58.25
X75.751Y-82.75
X75.751Y-107.25
X81.0Y-61.249
X81.0Y-63.251
X81.0Y-85.749
X81.0Y-87.751
X82.0Y-61.249
X82.0Y-63.251
X82.0Y-85.749
X82.0Y-87.751
X83.0Y-61.249
X83.0Y-63.251
X83.0Y-85.749
X83.0Y-87.751
X84.0Y-61.249
X84.0Y-63.251
X84.0Y-85.749
X84.0Y-87.751
X85.0Y-61.249
X85.0Y-63.251
X85.0Y-85.749
X85.0Y-87.751
T0
M30
