%TF.GenerationSoftware,KiCad,Pcbnew,(6.0.0)*%
%TF.CreationDate,2021-12-29T03:16:53-05:00*%
%TF.ProjectId,panel,70616e65-6c2e-46b6-9963-61645f706362,rev?*%
%TF.SameCoordinates,Original*%
%TF.FileFunction,Copper,L2,Bot*%
%TF.FilePolarity,Positive*%
%FSLAX46Y46*%
G04 Gerber Fmt 4.6, Leading zero omitted, Abs format (unit mm)*
G04 Created by KiCad (PCBNEW (6.0.0)) date 2021-12-29 03:16:53*
%MOMM*%
%LPD*%
G01*
G04 APERTURE LIST*
%ADD10C,0.250000*%
%TA.AperFunction,NonConductor*%
%ADD11C,0.250000*%
%TD*%
%TA.AperFunction,ComponentPad*%
%ADD12R,1.700000X1.700000*%
%TD*%
%TA.AperFunction,ComponentPad*%
%ADD13O,1.700000X1.700000*%
%TD*%
%TA.AperFunction,Conductor*%
%ADD14C,2.000000*%
%TD*%
G04 APERTURE END LIST*
D10*
D11*
X60597623Y-56149997D02*
X60597623Y-55578568D01*
X59597623Y-55864282D02*
X60597623Y-55864282D01*
X59597623Y-55245235D02*
X60597623Y-55245235D01*
X59597623Y-54816663D02*
X60121432Y-54816663D01*
X60216670Y-54864282D01*
X60264289Y-54959520D01*
X60264289Y-55102377D01*
X60216670Y-55197616D01*
X60169051Y-55245235D01*
X59597623Y-53911901D02*
X60121432Y-53911901D01*
X60216670Y-53959520D01*
X60264289Y-54054758D01*
X60264289Y-54245235D01*
X60216670Y-54340473D01*
X59645242Y-53911901D02*
X59597623Y-54007139D01*
X59597623Y-54245235D01*
X59645242Y-54340473D01*
X59740480Y-54388092D01*
X59835718Y-54388092D01*
X59930956Y-54340473D01*
X59978575Y-54245235D01*
X59978575Y-54007139D01*
X60026194Y-53911901D01*
X60264289Y-53435711D02*
X59597623Y-53435711D01*
X60169051Y-53435711D02*
X60216670Y-53388092D01*
X60264289Y-53292854D01*
X60264289Y-53149997D01*
X60216670Y-53054758D01*
X60121432Y-53007139D01*
X59597623Y-53007139D01*
X59597623Y-52530949D02*
X60597623Y-52530949D01*
X59978575Y-52435711D02*
X59597623Y-52149997D01*
X60264289Y-52149997D02*
X59883337Y-52530949D01*
X59645242Y-51769044D02*
X59597623Y-51673806D01*
X59597623Y-51483330D01*
X59645242Y-51388092D01*
X59740480Y-51340473D01*
X59788099Y-51340473D01*
X59883337Y-51388092D01*
X59930956Y-51483330D01*
X59930956Y-51626187D01*
X59978575Y-51721425D01*
X60073813Y-51769044D01*
X60121432Y-51769044D01*
X60216670Y-51721425D01*
X60264289Y-51626187D01*
X60264289Y-51483330D01*
X60216670Y-51388092D01*
X59597623Y-50149997D02*
X60597623Y-50149997D01*
X59883337Y-49816663D01*
X60597623Y-49483330D01*
X59597623Y-49483330D01*
X59597623Y-48578568D02*
X60121432Y-48578568D01*
X60216670Y-48626187D01*
X60264289Y-48721425D01*
X60264289Y-48911901D01*
X60216670Y-49007139D01*
X59645242Y-48578568D02*
X59597623Y-48673806D01*
X59597623Y-48911901D01*
X59645242Y-49007139D01*
X59740480Y-49054758D01*
X59835718Y-49054758D01*
X59930956Y-49007139D01*
X59978575Y-48911901D01*
X59978575Y-48673806D01*
X60026194Y-48578568D01*
X59597623Y-48102377D02*
X60264289Y-48102377D01*
X60073813Y-48102377D02*
X60169051Y-48054758D01*
X60216670Y-48007139D01*
X60264289Y-47911901D01*
X60264289Y-47816663D01*
X59645242Y-47530949D02*
X59597623Y-47435711D01*
X59597623Y-47245235D01*
X59645242Y-47149997D01*
X59740480Y-47102377D01*
X59788099Y-47102377D01*
X59883337Y-47149997D01*
X59930956Y-47245235D01*
X59930956Y-47388092D01*
X59978575Y-47483330D01*
X60073813Y-47530949D01*
X60121432Y-47530949D01*
X60216670Y-47483330D01*
X60264289Y-47388092D01*
X60264289Y-47245235D01*
X60216670Y-47149997D01*
X59597623Y-46673806D02*
X60597623Y-46673806D01*
X59597623Y-46245235D02*
X60121432Y-46245235D01*
X60216670Y-46292854D01*
X60264289Y-46388092D01*
X60264289Y-46530949D01*
X60216670Y-46626187D01*
X60169051Y-46673806D01*
X59597623Y-45340473D02*
X60121432Y-45340473D01*
X60216670Y-45388092D01*
X60264289Y-45483330D01*
X60264289Y-45673806D01*
X60216670Y-45769044D01*
X59645242Y-45340473D02*
X59597623Y-45435711D01*
X59597623Y-45673806D01*
X59645242Y-45769044D01*
X59740480Y-45816663D01*
X59835718Y-45816663D01*
X59930956Y-45769044D01*
X59978575Y-45673806D01*
X59978575Y-45435711D01*
X60026194Y-45340473D01*
X59597623Y-44721425D02*
X59645242Y-44816663D01*
X59740480Y-44864282D01*
X60597623Y-44864282D01*
X59597623Y-44197616D02*
X59645242Y-44292854D01*
X59740480Y-44340473D01*
X60597623Y-44340473D01*
D10*
D11*
X44097616Y-56149997D02*
X44097616Y-55578568D01*
X43097616Y-55864282D02*
X44097616Y-55864282D01*
X43097616Y-55245235D02*
X44097616Y-55245235D01*
X43097616Y-54816663D02*
X43621425Y-54816663D01*
X43716663Y-54864282D01*
X43764282Y-54959520D01*
X43764282Y-55102377D01*
X43716663Y-55197616D01*
X43669044Y-55245235D01*
X43097616Y-53911901D02*
X43621425Y-53911901D01*
X43716663Y-53959520D01*
X43764282Y-54054758D01*
X43764282Y-54245235D01*
X43716663Y-54340473D01*
X43145235Y-53911901D02*
X43097616Y-54007139D01*
X43097616Y-54245235D01*
X43145235Y-54340473D01*
X43240473Y-54388092D01*
X43335711Y-54388092D01*
X43430949Y-54340473D01*
X43478568Y-54245235D01*
X43478568Y-54007139D01*
X43526187Y-53911901D01*
X43764282Y-53435711D02*
X43097616Y-53435711D01*
X43669044Y-53435711D02*
X43716663Y-53388092D01*
X43764282Y-53292854D01*
X43764282Y-53149997D01*
X43716663Y-53054758D01*
X43621425Y-53007139D01*
X43097616Y-53007139D01*
X43097616Y-52530949D02*
X44097616Y-52530949D01*
X43478568Y-52435711D02*
X43097616Y-52149997D01*
X43764282Y-52149997D02*
X43383330Y-52530949D01*
X43145235Y-51769044D02*
X43097616Y-51673806D01*
X43097616Y-51483330D01*
X43145235Y-51388092D01*
X43240473Y-51340473D01*
X43288092Y-51340473D01*
X43383330Y-51388092D01*
X43430949Y-51483330D01*
X43430949Y-51626187D01*
X43478568Y-51721425D01*
X43573806Y-51769044D01*
X43621425Y-51769044D01*
X43716663Y-51721425D01*
X43764282Y-51626187D01*
X43764282Y-51483330D01*
X43716663Y-51388092D01*
X43097616Y-50149997D02*
X44097616Y-50149997D01*
X43383330Y-49816663D01*
X44097616Y-49483330D01*
X43097616Y-49483330D01*
X43097616Y-48578568D02*
X43621425Y-48578568D01*
X43716663Y-48626187D01*
X43764282Y-48721425D01*
X43764282Y-48911901D01*
X43716663Y-49007139D01*
X43145235Y-48578568D02*
X43097616Y-48673806D01*
X43097616Y-48911901D01*
X43145235Y-49007139D01*
X43240473Y-49054758D01*
X43335711Y-49054758D01*
X43430949Y-49007139D01*
X43478568Y-48911901D01*
X43478568Y-48673806D01*
X43526187Y-48578568D01*
X43097616Y-48102377D02*
X43764282Y-48102377D01*
X43573806Y-48102377D02*
X43669044Y-48054758D01*
X43716663Y-48007139D01*
X43764282Y-47911901D01*
X43764282Y-47816663D01*
X43145235Y-47530949D02*
X43097616Y-47435711D01*
X43097616Y-47245235D01*
X43145235Y-47149997D01*
X43240473Y-47102377D01*
X43288092Y-47102377D01*
X43383330Y-47149997D01*
X43430949Y-47245235D01*
X43430949Y-47388092D01*
X43478568Y-47483330D01*
X43573806Y-47530949D01*
X43621425Y-47530949D01*
X43716663Y-47483330D01*
X43764282Y-47388092D01*
X43764282Y-47245235D01*
X43716663Y-47149997D01*
X43097616Y-46673806D02*
X44097616Y-46673806D01*
X43097616Y-46245235D02*
X43621425Y-46245235D01*
X43716663Y-46292854D01*
X43764282Y-46388092D01*
X43764282Y-46530949D01*
X43716663Y-46626187D01*
X43669044Y-46673806D01*
X43097616Y-45340473D02*
X43621425Y-45340473D01*
X43716663Y-45388092D01*
X43764282Y-45483330D01*
X43764282Y-45673806D01*
X43716663Y-45769044D01*
X43145235Y-45340473D02*
X43097616Y-45435711D01*
X43097616Y-45673806D01*
X43145235Y-45769044D01*
X43240473Y-45816663D01*
X43335711Y-45816663D01*
X43430949Y-45769044D01*
X43478568Y-45673806D01*
X43478568Y-45435711D01*
X43526187Y-45340473D01*
X43097616Y-44721425D02*
X43145235Y-44816663D01*
X43240473Y-44864282D01*
X44097616Y-44864282D01*
X43097616Y-44197616D02*
X43145235Y-44292854D01*
X43240473Y-44340473D01*
X44097616Y-44340473D01*
D10*
D11*
X77097630Y-56149997D02*
X77097630Y-55578568D01*
X76097630Y-55864282D02*
X77097630Y-55864282D01*
X76097630Y-55245235D02*
X77097630Y-55245235D01*
X76097630Y-54816663D02*
X76621439Y-54816663D01*
X76716677Y-54864282D01*
X76764296Y-54959520D01*
X76764296Y-55102377D01*
X76716677Y-55197616D01*
X76669058Y-55245235D01*
X76097630Y-53911901D02*
X76621439Y-53911901D01*
X76716677Y-53959520D01*
X76764296Y-54054758D01*
X76764296Y-54245235D01*
X76716677Y-54340473D01*
X76145249Y-53911901D02*
X76097630Y-54007139D01*
X76097630Y-54245235D01*
X76145249Y-54340473D01*
X76240487Y-54388092D01*
X76335725Y-54388092D01*
X76430963Y-54340473D01*
X76478582Y-54245235D01*
X76478582Y-54007139D01*
X76526201Y-53911901D01*
X76764296Y-53435711D02*
X76097630Y-53435711D01*
X76669058Y-53435711D02*
X76716677Y-53388092D01*
X76764296Y-53292854D01*
X76764296Y-53149997D01*
X76716677Y-53054758D01*
X76621439Y-53007139D01*
X76097630Y-53007139D01*
X76097630Y-52530949D02*
X77097630Y-52530949D01*
X76478582Y-52435711D02*
X76097630Y-52149997D01*
X76764296Y-52149997D02*
X76383344Y-52530949D01*
X76145249Y-51769044D02*
X76097630Y-51673806D01*
X76097630Y-51483330D01*
X76145249Y-51388092D01*
X76240487Y-51340473D01*
X76288106Y-51340473D01*
X76383344Y-51388092D01*
X76430963Y-51483330D01*
X76430963Y-51626187D01*
X76478582Y-51721425D01*
X76573820Y-51769044D01*
X76621439Y-51769044D01*
X76716677Y-51721425D01*
X76764296Y-51626187D01*
X76764296Y-51483330D01*
X76716677Y-51388092D01*
X76097630Y-50149997D02*
X77097630Y-50149997D01*
X76383344Y-49816663D01*
X77097630Y-49483330D01*
X76097630Y-49483330D01*
X76097630Y-48578568D02*
X76621439Y-48578568D01*
X76716677Y-48626187D01*
X76764296Y-48721425D01*
X76764296Y-48911901D01*
X76716677Y-49007139D01*
X76145249Y-48578568D02*
X76097630Y-48673806D01*
X76097630Y-48911901D01*
X76145249Y-49007139D01*
X76240487Y-49054758D01*
X76335725Y-49054758D01*
X76430963Y-49007139D01*
X76478582Y-48911901D01*
X76478582Y-48673806D01*
X76526201Y-48578568D01*
X76097630Y-48102377D02*
X76764296Y-48102377D01*
X76573820Y-48102377D02*
X76669058Y-48054758D01*
X76716677Y-48007139D01*
X76764296Y-47911901D01*
X76764296Y-47816663D01*
X76145249Y-47530949D02*
X76097630Y-47435711D01*
X76097630Y-47245235D01*
X76145249Y-47149997D01*
X76240487Y-47102377D01*
X76288106Y-47102377D01*
X76383344Y-47149997D01*
X76430963Y-47245235D01*
X76430963Y-47388092D01*
X76478582Y-47483330D01*
X76573820Y-47530949D01*
X76621439Y-47530949D01*
X76716677Y-47483330D01*
X76764296Y-47388092D01*
X76764296Y-47245235D01*
X76716677Y-47149997D01*
X76097630Y-46673806D02*
X77097630Y-46673806D01*
X76097630Y-46245235D02*
X76621439Y-46245235D01*
X76716677Y-46292854D01*
X76764296Y-46388092D01*
X76764296Y-46530949D01*
X76716677Y-46626187D01*
X76669058Y-46673806D01*
X76097630Y-45340473D02*
X76621439Y-45340473D01*
X76716677Y-45388092D01*
X76764296Y-45483330D01*
X76764296Y-45673806D01*
X76716677Y-45769044D01*
X76145249Y-45340473D02*
X76097630Y-45435711D01*
X76097630Y-45673806D01*
X76145249Y-45769044D01*
X76240487Y-45816663D01*
X76335725Y-45816663D01*
X76430963Y-45769044D01*
X76478582Y-45673806D01*
X76478582Y-45435711D01*
X76526201Y-45340473D01*
X76097630Y-44721425D02*
X76145249Y-44816663D01*
X76240487Y-44864282D01*
X77097630Y-44864282D01*
X76097630Y-44197616D02*
X76145249Y-44292854D01*
X76240487Y-44340473D01*
X77097630Y-44340473D01*
D10*
D11*
X44097616Y-80650004D02*
X44097616Y-80078575D01*
X43097616Y-80364289D02*
X44097616Y-80364289D01*
X43097616Y-79745242D02*
X44097616Y-79745242D01*
X43097616Y-79316670D02*
X43621425Y-79316670D01*
X43716663Y-79364289D01*
X43764282Y-79459527D01*
X43764282Y-79602384D01*
X43716663Y-79697623D01*
X43669044Y-79745242D01*
X43097616Y-78411908D02*
X43621425Y-78411908D01*
X43716663Y-78459527D01*
X43764282Y-78554765D01*
X43764282Y-78745242D01*
X43716663Y-78840480D01*
X43145235Y-78411908D02*
X43097616Y-78507146D01*
X43097616Y-78745242D01*
X43145235Y-78840480D01*
X43240473Y-78888099D01*
X43335711Y-78888099D01*
X43430949Y-78840480D01*
X43478568Y-78745242D01*
X43478568Y-78507146D01*
X43526187Y-78411908D01*
X43764282Y-77935718D02*
X43097616Y-77935718D01*
X43669044Y-77935718D02*
X43716663Y-77888099D01*
X43764282Y-77792861D01*
X43764282Y-77650004D01*
X43716663Y-77554765D01*
X43621425Y-77507146D01*
X43097616Y-77507146D01*
X43097616Y-77030956D02*
X44097616Y-77030956D01*
X43478568Y-76935718D02*
X43097616Y-76650004D01*
X43764282Y-76650004D02*
X43383330Y-77030956D01*
X43145235Y-76269051D02*
X43097616Y-76173813D01*
X43097616Y-75983337D01*
X43145235Y-75888099D01*
X43240473Y-75840480D01*
X43288092Y-75840480D01*
X43383330Y-75888099D01*
X43430949Y-75983337D01*
X43430949Y-76126194D01*
X43478568Y-76221432D01*
X43573806Y-76269051D01*
X43621425Y-76269051D01*
X43716663Y-76221432D01*
X43764282Y-76126194D01*
X43764282Y-75983337D01*
X43716663Y-75888099D01*
X43097616Y-74650004D02*
X44097616Y-74650004D01*
X43383330Y-74316670D01*
X44097616Y-73983337D01*
X43097616Y-73983337D01*
X43097616Y-73078575D02*
X43621425Y-73078575D01*
X43716663Y-73126194D01*
X43764282Y-73221432D01*
X43764282Y-73411908D01*
X43716663Y-73507146D01*
X43145235Y-73078575D02*
X43097616Y-73173813D01*
X43097616Y-73411908D01*
X43145235Y-73507146D01*
X43240473Y-73554765D01*
X43335711Y-73554765D01*
X43430949Y-73507146D01*
X43478568Y-73411908D01*
X43478568Y-73173813D01*
X43526187Y-73078575D01*
X43097616Y-72602384D02*
X43764282Y-72602384D01*
X43573806Y-72602384D02*
X43669044Y-72554765D01*
X43716663Y-72507146D01*
X43764282Y-72411908D01*
X43764282Y-72316670D01*
X43145235Y-72030956D02*
X43097616Y-71935718D01*
X43097616Y-71745242D01*
X43145235Y-71650004D01*
X43240473Y-71602384D01*
X43288092Y-71602384D01*
X43383330Y-71650004D01*
X43430949Y-71745242D01*
X43430949Y-71888099D01*
X43478568Y-71983337D01*
X43573806Y-72030956D01*
X43621425Y-72030956D01*
X43716663Y-71983337D01*
X43764282Y-71888099D01*
X43764282Y-71745242D01*
X43716663Y-71650004D01*
X43097616Y-71173813D02*
X44097616Y-71173813D01*
X43097616Y-70745242D02*
X43621425Y-70745242D01*
X43716663Y-70792861D01*
X43764282Y-70888099D01*
X43764282Y-71030956D01*
X43716663Y-71126194D01*
X43669044Y-71173813D01*
X43097616Y-69840480D02*
X43621425Y-69840480D01*
X43716663Y-69888099D01*
X43764282Y-69983337D01*
X43764282Y-70173813D01*
X43716663Y-70269051D01*
X43145235Y-69840480D02*
X43097616Y-69935718D01*
X43097616Y-70173813D01*
X43145235Y-70269051D01*
X43240473Y-70316670D01*
X43335711Y-70316670D01*
X43430949Y-70269051D01*
X43478568Y-70173813D01*
X43478568Y-69935718D01*
X43526187Y-69840480D01*
X43097616Y-69221432D02*
X43145235Y-69316670D01*
X43240473Y-69364289D01*
X44097616Y-69364289D01*
X43097616Y-68697623D02*
X43145235Y-68792861D01*
X43240473Y-68840480D01*
X44097616Y-68840480D01*
D10*
D11*
X60597623Y-80650004D02*
X60597623Y-80078575D01*
X59597623Y-80364289D02*
X60597623Y-80364289D01*
X59597623Y-79745242D02*
X60597623Y-79745242D01*
X59597623Y-79316670D02*
X60121432Y-79316670D01*
X60216670Y-79364289D01*
X60264289Y-79459527D01*
X60264289Y-79602384D01*
X60216670Y-79697623D01*
X60169051Y-79745242D01*
X59597623Y-78411908D02*
X60121432Y-78411908D01*
X60216670Y-78459527D01*
X60264289Y-78554765D01*
X60264289Y-78745242D01*
X60216670Y-78840480D01*
X59645242Y-78411908D02*
X59597623Y-78507146D01*
X59597623Y-78745242D01*
X59645242Y-78840480D01*
X59740480Y-78888099D01*
X59835718Y-78888099D01*
X59930956Y-78840480D01*
X59978575Y-78745242D01*
X59978575Y-78507146D01*
X60026194Y-78411908D01*
X60264289Y-77935718D02*
X59597623Y-77935718D01*
X60169051Y-77935718D02*
X60216670Y-77888099D01*
X60264289Y-77792861D01*
X60264289Y-77650004D01*
X60216670Y-77554765D01*
X60121432Y-77507146D01*
X59597623Y-77507146D01*
X59597623Y-77030956D02*
X60597623Y-77030956D01*
X59978575Y-76935718D02*
X59597623Y-76650004D01*
X60264289Y-76650004D02*
X59883337Y-77030956D01*
X59645242Y-76269051D02*
X59597623Y-76173813D01*
X59597623Y-75983337D01*
X59645242Y-75888099D01*
X59740480Y-75840480D01*
X59788099Y-75840480D01*
X59883337Y-75888099D01*
X59930956Y-75983337D01*
X59930956Y-76126194D01*
X59978575Y-76221432D01*
X60073813Y-76269051D01*
X60121432Y-76269051D01*
X60216670Y-76221432D01*
X60264289Y-76126194D01*
X60264289Y-75983337D01*
X60216670Y-75888099D01*
X59597623Y-74650004D02*
X60597623Y-74650004D01*
X59883337Y-74316670D01*
X60597623Y-73983337D01*
X59597623Y-73983337D01*
X59597623Y-73078575D02*
X60121432Y-73078575D01*
X60216670Y-73126194D01*
X60264289Y-73221432D01*
X60264289Y-73411908D01*
X60216670Y-73507146D01*
X59645242Y-73078575D02*
X59597623Y-73173813D01*
X59597623Y-73411908D01*
X59645242Y-73507146D01*
X59740480Y-73554765D01*
X59835718Y-73554765D01*
X59930956Y-73507146D01*
X59978575Y-73411908D01*
X59978575Y-73173813D01*
X60026194Y-73078575D01*
X59597623Y-72602384D02*
X60264289Y-72602384D01*
X60073813Y-72602384D02*
X60169051Y-72554765D01*
X60216670Y-72507146D01*
X60264289Y-72411908D01*
X60264289Y-72316670D01*
X59645242Y-72030956D02*
X59597623Y-71935718D01*
X59597623Y-71745242D01*
X59645242Y-71650004D01*
X59740480Y-71602384D01*
X59788099Y-71602384D01*
X59883337Y-71650004D01*
X59930956Y-71745242D01*
X59930956Y-71888099D01*
X59978575Y-71983337D01*
X60073813Y-72030956D01*
X60121432Y-72030956D01*
X60216670Y-71983337D01*
X60264289Y-71888099D01*
X60264289Y-71745242D01*
X60216670Y-71650004D01*
X59597623Y-71173813D02*
X60597623Y-71173813D01*
X59597623Y-70745242D02*
X60121432Y-70745242D01*
X60216670Y-70792861D01*
X60264289Y-70888099D01*
X60264289Y-71030956D01*
X60216670Y-71126194D01*
X60169051Y-71173813D01*
X59597623Y-69840480D02*
X60121432Y-69840480D01*
X60216670Y-69888099D01*
X60264289Y-69983337D01*
X60264289Y-70173813D01*
X60216670Y-70269051D01*
X59645242Y-69840480D02*
X59597623Y-69935718D01*
X59597623Y-70173813D01*
X59645242Y-70269051D01*
X59740480Y-70316670D01*
X59835718Y-70316670D01*
X59930956Y-70269051D01*
X59978575Y-70173813D01*
X59978575Y-69935718D01*
X60026194Y-69840480D01*
X59597623Y-69221432D02*
X59645242Y-69316670D01*
X59740480Y-69364289D01*
X60597623Y-69364289D01*
X59597623Y-68697623D02*
X59645242Y-68792861D01*
X59740480Y-68840480D01*
X60597623Y-68840480D01*
D10*
D11*
X77097630Y-80650004D02*
X77097630Y-80078575D01*
X76097630Y-80364289D02*
X77097630Y-80364289D01*
X76097630Y-79745242D02*
X77097630Y-79745242D01*
X76097630Y-79316670D02*
X76621439Y-79316670D01*
X76716677Y-79364289D01*
X76764296Y-79459527D01*
X76764296Y-79602384D01*
X76716677Y-79697623D01*
X76669058Y-79745242D01*
X76097630Y-78411908D02*
X76621439Y-78411908D01*
X76716677Y-78459527D01*
X76764296Y-78554765D01*
X76764296Y-78745242D01*
X76716677Y-78840480D01*
X76145249Y-78411908D02*
X76097630Y-78507146D01*
X76097630Y-78745242D01*
X76145249Y-78840480D01*
X76240487Y-78888099D01*
X76335725Y-78888099D01*
X76430963Y-78840480D01*
X76478582Y-78745242D01*
X76478582Y-78507146D01*
X76526201Y-78411908D01*
X76764296Y-77935718D02*
X76097630Y-77935718D01*
X76669058Y-77935718D02*
X76716677Y-77888099D01*
X76764296Y-77792861D01*
X76764296Y-77650004D01*
X76716677Y-77554765D01*
X76621439Y-77507146D01*
X76097630Y-77507146D01*
X76097630Y-77030956D02*
X77097630Y-77030956D01*
X76478582Y-76935718D02*
X76097630Y-76650004D01*
X76764296Y-76650004D02*
X76383344Y-77030956D01*
X76145249Y-76269051D02*
X76097630Y-76173813D01*
X76097630Y-75983337D01*
X76145249Y-75888099D01*
X76240487Y-75840480D01*
X76288106Y-75840480D01*
X76383344Y-75888099D01*
X76430963Y-75983337D01*
X76430963Y-76126194D01*
X76478582Y-76221432D01*
X76573820Y-76269051D01*
X76621439Y-76269051D01*
X76716677Y-76221432D01*
X76764296Y-76126194D01*
X76764296Y-75983337D01*
X76716677Y-75888099D01*
X76097630Y-74650004D02*
X77097630Y-74650004D01*
X76383344Y-74316670D01*
X77097630Y-73983337D01*
X76097630Y-73983337D01*
X76097630Y-73078575D02*
X76621439Y-73078575D01*
X76716677Y-73126194D01*
X76764296Y-73221432D01*
X76764296Y-73411908D01*
X76716677Y-73507146D01*
X76145249Y-73078575D02*
X76097630Y-73173813D01*
X76097630Y-73411908D01*
X76145249Y-73507146D01*
X76240487Y-73554765D01*
X76335725Y-73554765D01*
X76430963Y-73507146D01*
X76478582Y-73411908D01*
X76478582Y-73173813D01*
X76526201Y-73078575D01*
X76097630Y-72602384D02*
X76764296Y-72602384D01*
X76573820Y-72602384D02*
X76669058Y-72554765D01*
X76716677Y-72507146D01*
X76764296Y-72411908D01*
X76764296Y-72316670D01*
X76145249Y-72030956D02*
X76097630Y-71935718D01*
X76097630Y-71745242D01*
X76145249Y-71650004D01*
X76240487Y-71602384D01*
X76288106Y-71602384D01*
X76383344Y-71650004D01*
X76430963Y-71745242D01*
X76430963Y-71888099D01*
X76478582Y-71983337D01*
X76573820Y-72030956D01*
X76621439Y-72030956D01*
X76716677Y-71983337D01*
X76764296Y-71888099D01*
X76764296Y-71745242D01*
X76716677Y-71650004D01*
X76097630Y-71173813D02*
X77097630Y-71173813D01*
X76097630Y-70745242D02*
X76621439Y-70745242D01*
X76716677Y-70792861D01*
X76764296Y-70888099D01*
X76764296Y-71030956D01*
X76716677Y-71126194D01*
X76669058Y-71173813D01*
X76097630Y-69840480D02*
X76621439Y-69840480D01*
X76716677Y-69888099D01*
X76764296Y-69983337D01*
X76764296Y-70173813D01*
X76716677Y-70269051D01*
X76145249Y-69840480D02*
X76097630Y-69935718D01*
X76097630Y-70173813D01*
X76145249Y-70269051D01*
X76240487Y-70316670D01*
X76335725Y-70316670D01*
X76430963Y-70269051D01*
X76478582Y-70173813D01*
X76478582Y-69935718D01*
X76526201Y-69840480D01*
X76097630Y-69221432D02*
X76145249Y-69316670D01*
X76240487Y-69364289D01*
X77097630Y-69364289D01*
X76097630Y-68697623D02*
X76145249Y-68792861D01*
X76240487Y-68840480D01*
X77097630Y-68840480D01*
D10*
D11*
X44097616Y-105150011D02*
X44097616Y-104578582D01*
X43097616Y-104864296D02*
X44097616Y-104864296D01*
X43097616Y-104245249D02*
X44097616Y-104245249D01*
X43097616Y-103816677D02*
X43621425Y-103816677D01*
X43716663Y-103864296D01*
X43764282Y-103959534D01*
X43764282Y-104102391D01*
X43716663Y-104197630D01*
X43669044Y-104245249D01*
X43097616Y-102911915D02*
X43621425Y-102911915D01*
X43716663Y-102959534D01*
X43764282Y-103054772D01*
X43764282Y-103245249D01*
X43716663Y-103340487D01*
X43145235Y-102911915D02*
X43097616Y-103007153D01*
X43097616Y-103245249D01*
X43145235Y-103340487D01*
X43240473Y-103388106D01*
X43335711Y-103388106D01*
X43430949Y-103340487D01*
X43478568Y-103245249D01*
X43478568Y-103007153D01*
X43526187Y-102911915D01*
X43764282Y-102435725D02*
X43097616Y-102435725D01*
X43669044Y-102435725D02*
X43716663Y-102388106D01*
X43764282Y-102292868D01*
X43764282Y-102150011D01*
X43716663Y-102054772D01*
X43621425Y-102007153D01*
X43097616Y-102007153D01*
X43097616Y-101530963D02*
X44097616Y-101530963D01*
X43478568Y-101435725D02*
X43097616Y-101150011D01*
X43764282Y-101150011D02*
X43383330Y-101530963D01*
X43145235Y-100769058D02*
X43097616Y-100673820D01*
X43097616Y-100483344D01*
X43145235Y-100388106D01*
X43240473Y-100340487D01*
X43288092Y-100340487D01*
X43383330Y-100388106D01*
X43430949Y-100483344D01*
X43430949Y-100626201D01*
X43478568Y-100721439D01*
X43573806Y-100769058D01*
X43621425Y-100769058D01*
X43716663Y-100721439D01*
X43764282Y-100626201D01*
X43764282Y-100483344D01*
X43716663Y-100388106D01*
X43097616Y-99150011D02*
X44097616Y-99150011D01*
X43383330Y-98816677D01*
X44097616Y-98483344D01*
X43097616Y-98483344D01*
X43097616Y-97578582D02*
X43621425Y-97578582D01*
X43716663Y-97626201D01*
X43764282Y-97721439D01*
X43764282Y-97911915D01*
X43716663Y-98007153D01*
X43145235Y-97578582D02*
X43097616Y-97673820D01*
X43097616Y-97911915D01*
X43145235Y-98007153D01*
X43240473Y-98054772D01*
X43335711Y-98054772D01*
X43430949Y-98007153D01*
X43478568Y-97911915D01*
X43478568Y-97673820D01*
X43526187Y-97578582D01*
X43097616Y-97102391D02*
X43764282Y-97102391D01*
X43573806Y-97102391D02*
X43669044Y-97054772D01*
X43716663Y-97007153D01*
X43764282Y-96911915D01*
X43764282Y-96816677D01*
X43145235Y-96530963D02*
X43097616Y-96435725D01*
X43097616Y-96245249D01*
X43145235Y-96150011D01*
X43240473Y-96102391D01*
X43288092Y-96102391D01*
X43383330Y-96150011D01*
X43430949Y-96245249D01*
X43430949Y-96388106D01*
X43478568Y-96483344D01*
X43573806Y-96530963D01*
X43621425Y-96530963D01*
X43716663Y-96483344D01*
X43764282Y-96388106D01*
X43764282Y-96245249D01*
X43716663Y-96150011D01*
X43097616Y-95673820D02*
X44097616Y-95673820D01*
X43097616Y-95245249D02*
X43621425Y-95245249D01*
X43716663Y-95292868D01*
X43764282Y-95388106D01*
X43764282Y-95530963D01*
X43716663Y-95626201D01*
X43669044Y-95673820D01*
X43097616Y-94340487D02*
X43621425Y-94340487D01*
X43716663Y-94388106D01*
X43764282Y-94483344D01*
X43764282Y-94673820D01*
X43716663Y-94769058D01*
X43145235Y-94340487D02*
X43097616Y-94435725D01*
X43097616Y-94673820D01*
X43145235Y-94769058D01*
X43240473Y-94816677D01*
X43335711Y-94816677D01*
X43430949Y-94769058D01*
X43478568Y-94673820D01*
X43478568Y-94435725D01*
X43526187Y-94340487D01*
X43097616Y-93721439D02*
X43145235Y-93816677D01*
X43240473Y-93864296D01*
X44097616Y-93864296D01*
X43097616Y-93197630D02*
X43145235Y-93292868D01*
X43240473Y-93340487D01*
X44097616Y-93340487D01*
D10*
D11*
X60597623Y-105150011D02*
X60597623Y-104578582D01*
X59597623Y-104864296D02*
X60597623Y-104864296D01*
X59597623Y-104245249D02*
X60597623Y-104245249D01*
X59597623Y-103816677D02*
X60121432Y-103816677D01*
X60216670Y-103864296D01*
X60264289Y-103959534D01*
X60264289Y-104102391D01*
X60216670Y-104197630D01*
X60169051Y-104245249D01*
X59597623Y-102911915D02*
X60121432Y-102911915D01*
X60216670Y-102959534D01*
X60264289Y-103054772D01*
X60264289Y-103245249D01*
X60216670Y-103340487D01*
X59645242Y-102911915D02*
X59597623Y-103007153D01*
X59597623Y-103245249D01*
X59645242Y-103340487D01*
X59740480Y-103388106D01*
X59835718Y-103388106D01*
X59930956Y-103340487D01*
X59978575Y-103245249D01*
X59978575Y-103007153D01*
X60026194Y-102911915D01*
X60264289Y-102435725D02*
X59597623Y-102435725D01*
X60169051Y-102435725D02*
X60216670Y-102388106D01*
X60264289Y-102292868D01*
X60264289Y-102150011D01*
X60216670Y-102054772D01*
X60121432Y-102007153D01*
X59597623Y-102007153D01*
X59597623Y-101530963D02*
X60597623Y-101530963D01*
X59978575Y-101435725D02*
X59597623Y-101150011D01*
X60264289Y-101150011D02*
X59883337Y-101530963D01*
X59645242Y-100769058D02*
X59597623Y-100673820D01*
X59597623Y-100483344D01*
X59645242Y-100388106D01*
X59740480Y-100340487D01*
X59788099Y-100340487D01*
X59883337Y-100388106D01*
X59930956Y-100483344D01*
X59930956Y-100626201D01*
X59978575Y-100721439D01*
X60073813Y-100769058D01*
X60121432Y-100769058D01*
X60216670Y-100721439D01*
X60264289Y-100626201D01*
X60264289Y-100483344D01*
X60216670Y-100388106D01*
X59597623Y-99150011D02*
X60597623Y-99150011D01*
X59883337Y-98816677D01*
X60597623Y-98483344D01*
X59597623Y-98483344D01*
X59597623Y-97578582D02*
X60121432Y-97578582D01*
X60216670Y-97626201D01*
X60264289Y-97721439D01*
X60264289Y-97911915D01*
X60216670Y-98007153D01*
X59645242Y-97578582D02*
X59597623Y-97673820D01*
X59597623Y-97911915D01*
X59645242Y-98007153D01*
X59740480Y-98054772D01*
X59835718Y-98054772D01*
X59930956Y-98007153D01*
X59978575Y-97911915D01*
X59978575Y-97673820D01*
X60026194Y-97578582D01*
X59597623Y-97102391D02*
X60264289Y-97102391D01*
X60073813Y-97102391D02*
X60169051Y-97054772D01*
X60216670Y-97007153D01*
X60264289Y-96911915D01*
X60264289Y-96816677D01*
X59645242Y-96530963D02*
X59597623Y-96435725D01*
X59597623Y-96245249D01*
X59645242Y-96150011D01*
X59740480Y-96102391D01*
X59788099Y-96102391D01*
X59883337Y-96150011D01*
X59930956Y-96245249D01*
X59930956Y-96388106D01*
X59978575Y-96483344D01*
X60073813Y-96530963D01*
X60121432Y-96530963D01*
X60216670Y-96483344D01*
X60264289Y-96388106D01*
X60264289Y-96245249D01*
X60216670Y-96150011D01*
X59597623Y-95673820D02*
X60597623Y-95673820D01*
X59597623Y-95245249D02*
X60121432Y-95245249D01*
X60216670Y-95292868D01*
X60264289Y-95388106D01*
X60264289Y-95530963D01*
X60216670Y-95626201D01*
X60169051Y-95673820D01*
X59597623Y-94340487D02*
X60121432Y-94340487D01*
X60216670Y-94388106D01*
X60264289Y-94483344D01*
X60264289Y-94673820D01*
X60216670Y-94769058D01*
X59645242Y-94340487D02*
X59597623Y-94435725D01*
X59597623Y-94673820D01*
X59645242Y-94769058D01*
X59740480Y-94816677D01*
X59835718Y-94816677D01*
X59930956Y-94769058D01*
X59978575Y-94673820D01*
X59978575Y-94435725D01*
X60026194Y-94340487D01*
X59597623Y-93721439D02*
X59645242Y-93816677D01*
X59740480Y-93864296D01*
X60597623Y-93864296D01*
X59597623Y-93197630D02*
X59645242Y-93292868D01*
X59740480Y-93340487D01*
X60597623Y-93340487D01*
D10*
D11*
X77097630Y-105150011D02*
X77097630Y-104578582D01*
X76097630Y-104864296D02*
X77097630Y-104864296D01*
X76097630Y-104245249D02*
X77097630Y-104245249D01*
X76097630Y-103816677D02*
X76621439Y-103816677D01*
X76716677Y-103864296D01*
X76764296Y-103959534D01*
X76764296Y-104102391D01*
X76716677Y-104197630D01*
X76669058Y-104245249D01*
X76097630Y-102911915D02*
X76621439Y-102911915D01*
X76716677Y-102959534D01*
X76764296Y-103054772D01*
X76764296Y-103245249D01*
X76716677Y-103340487D01*
X76145249Y-102911915D02*
X76097630Y-103007153D01*
X76097630Y-103245249D01*
X76145249Y-103340487D01*
X76240487Y-103388106D01*
X76335725Y-103388106D01*
X76430963Y-103340487D01*
X76478582Y-103245249D01*
X76478582Y-103007153D01*
X76526201Y-102911915D01*
X76764296Y-102435725D02*
X76097630Y-102435725D01*
X76669058Y-102435725D02*
X76716677Y-102388106D01*
X76764296Y-102292868D01*
X76764296Y-102150011D01*
X76716677Y-102054772D01*
X76621439Y-102007153D01*
X76097630Y-102007153D01*
X76097630Y-101530963D02*
X77097630Y-101530963D01*
X76478582Y-101435725D02*
X76097630Y-101150011D01*
X76764296Y-101150011D02*
X76383344Y-101530963D01*
X76145249Y-100769058D02*
X76097630Y-100673820D01*
X76097630Y-100483344D01*
X76145249Y-100388106D01*
X76240487Y-100340487D01*
X76288106Y-100340487D01*
X76383344Y-100388106D01*
X76430963Y-100483344D01*
X76430963Y-100626201D01*
X76478582Y-100721439D01*
X76573820Y-100769058D01*
X76621439Y-100769058D01*
X76716677Y-100721439D01*
X76764296Y-100626201D01*
X76764296Y-100483344D01*
X76716677Y-100388106D01*
X76097630Y-99150011D02*
X77097630Y-99150011D01*
X76383344Y-98816677D01*
X77097630Y-98483344D01*
X76097630Y-98483344D01*
X76097630Y-97578582D02*
X76621439Y-97578582D01*
X76716677Y-97626201D01*
X76764296Y-97721439D01*
X76764296Y-97911915D01*
X76716677Y-98007153D01*
X76145249Y-97578582D02*
X76097630Y-97673820D01*
X76097630Y-97911915D01*
X76145249Y-98007153D01*
X76240487Y-98054772D01*
X76335725Y-98054772D01*
X76430963Y-98007153D01*
X76478582Y-97911915D01*
X76478582Y-97673820D01*
X76526201Y-97578582D01*
X76097630Y-97102391D02*
X76764296Y-97102391D01*
X76573820Y-97102391D02*
X76669058Y-97054772D01*
X76716677Y-97007153D01*
X76764296Y-96911915D01*
X76764296Y-96816677D01*
X76145249Y-96530963D02*
X76097630Y-96435725D01*
X76097630Y-96245249D01*
X76145249Y-96150011D01*
X76240487Y-96102391D01*
X76288106Y-96102391D01*
X76383344Y-96150011D01*
X76430963Y-96245249D01*
X76430963Y-96388106D01*
X76478582Y-96483344D01*
X76573820Y-96530963D01*
X76621439Y-96530963D01*
X76716677Y-96483344D01*
X76764296Y-96388106D01*
X76764296Y-96245249D01*
X76716677Y-96150011D01*
X76097630Y-95673820D02*
X77097630Y-95673820D01*
X76097630Y-95245249D02*
X76621439Y-95245249D01*
X76716677Y-95292868D01*
X76764296Y-95388106D01*
X76764296Y-95530963D01*
X76716677Y-95626201D01*
X76669058Y-95673820D01*
X76097630Y-94340487D02*
X76621439Y-94340487D01*
X76716677Y-94388106D01*
X76764296Y-94483344D01*
X76764296Y-94673820D01*
X76716677Y-94769058D01*
X76145249Y-94340487D02*
X76097630Y-94435725D01*
X76097630Y-94673820D01*
X76145249Y-94769058D01*
X76240487Y-94816677D01*
X76335725Y-94816677D01*
X76430963Y-94769058D01*
X76478582Y-94673820D01*
X76478582Y-94435725D01*
X76526201Y-94340487D01*
X76097630Y-93721439D02*
X76145249Y-93816677D01*
X76240487Y-93864296D01*
X77097630Y-93864296D01*
X76097630Y-93197630D02*
X76145249Y-93292868D01*
X76240487Y-93340487D01*
X77097630Y-93340487D01*
D12*
%TO.P,PCM,1*%
%TO.N,Board_3-Net-(J1-Pad1)*%
X48679997Y-65125004D03*
D13*
%TO.P,PCM,2*%
%TO.N,Board_3-Net-(J1-Pad2)*%
X51219997Y-65125004D03*
%TD*%
D12*
%TO.P,J1,1*%
%TO.N,Board_6-Net-(J1-Pad1)*%
X48679997Y-106770011D03*
D13*
%TO.P,J1,2*%
%TO.N,Board_6-Net-(J1-Pad2)*%
X51219997Y-106770011D03*
%TD*%
D12*
%TO.P,J1,1*%
%TO.N,Board_4-Net-(J1-Pad1)*%
X65180004Y-82270004D03*
D13*
%TO.P,J1,2*%
%TO.N,Board_4-Net-(J1-Pad2)*%
X67720004Y-82270004D03*
%TD*%
D12*
%TO.P,PCM,1*%
%TO.N,Board_1-Net-(J1-Pad1)*%
X65180004Y-40624997D03*
D13*
%TO.P,PCM,2*%
%TO.N,Board_1-Net-(J1-Pad2)*%
X67720004Y-40624997D03*
%TD*%
D12*
%TO.P,PCM,1*%
%TO.N,Board_5-Net-(J1-Pad1)*%
X81680011Y-65125004D03*
D13*
%TO.P,PCM,2*%
%TO.N,Board_5-Net-(J1-Pad2)*%
X84220011Y-65125004D03*
%TD*%
D12*
%TO.P,J1,1*%
%TO.N,Board_8-Net-(J1-Pad1)*%
X81680011Y-106770011D03*
D13*
%TO.P,J1,2*%
%TO.N,Board_8-Net-(J1-Pad2)*%
X84220011Y-106770011D03*
%TD*%
D12*
%TO.P,J1,1*%
%TO.N,Board_3-Net-(J1-Pad1)*%
X48679997Y-82270004D03*
D13*
%TO.P,J1,2*%
%TO.N,Board_3-Net-(J1-Pad2)*%
X51219997Y-82270004D03*
%TD*%
D12*
%TO.P,J1,1*%
%TO.N,Board_7-Net-(J1-Pad1)*%
X65180004Y-106770011D03*
D13*
%TO.P,J1,2*%
%TO.N,Board_7-Net-(J1-Pad2)*%
X67720004Y-106770011D03*
%TD*%
D12*
%TO.P,J1,1*%
%TO.N,Board_5-Net-(J1-Pad1)*%
X81680011Y-82270004D03*
D13*
%TO.P,J1,2*%
%TO.N,Board_5-Net-(J1-Pad2)*%
X84220011Y-82270004D03*
%TD*%
D12*
%TO.P,PCM,1*%
%TO.N,Board_7-Net-(J1-Pad1)*%
X65180004Y-89625011D03*
D13*
%TO.P,PCM,2*%
%TO.N,Board_7-Net-(J1-Pad2)*%
X67720004Y-89625011D03*
%TD*%
D12*
%TO.P,PCM,1*%
%TO.N,Board_2-Net-(J1-Pad1)*%
X81680011Y-40624997D03*
D13*
%TO.P,PCM,2*%
%TO.N,Board_2-Net-(J1-Pad2)*%
X84220011Y-40624997D03*
%TD*%
D12*
%TO.P,PCM,1*%
%TO.N,Board_6-Net-(J1-Pad1)*%
X48679997Y-89625011D03*
D13*
%TO.P,PCM,2*%
%TO.N,Board_6-Net-(J1-Pad2)*%
X51219997Y-89625011D03*
%TD*%
D12*
%TO.P,PCM,1*%
%TO.N,Board_4-Net-(J1-Pad1)*%
X65180004Y-65125004D03*
D13*
%TO.P,PCM,2*%
%TO.N,Board_4-Net-(J1-Pad2)*%
X67720004Y-65125004D03*
%TD*%
D12*
%TO.P,PCM,1*%
%TO.N,Board_0-Net-(J1-Pad1)*%
X48679997Y-40624997D03*
D13*
%TO.P,PCM,2*%
%TO.N,Board_0-Net-(J1-Pad2)*%
X51219997Y-40624997D03*
%TD*%
D12*
%TO.P,J1,1*%
%TO.N,Board_0-Net-(J1-Pad1)*%
X48679997Y-57769997D03*
D13*
%TO.P,J1,2*%
%TO.N,Board_0-Net-(J1-Pad2)*%
X51219997Y-57769997D03*
%TD*%
D12*
%TO.P,J1,1*%
%TO.N,Board_1-Net-(J1-Pad1)*%
X65180004Y-57769997D03*
D13*
%TO.P,J1,2*%
%TO.N,Board_1-Net-(J1-Pad2)*%
X67720004Y-57769997D03*
%TD*%
D12*
%TO.P,J1,1*%
%TO.N,Board_2-Net-(J1-Pad1)*%
X81680011Y-57769997D03*
D13*
%TO.P,J1,2*%
%TO.N,Board_2-Net-(J1-Pad2)*%
X84220011Y-57769997D03*
%TD*%
D12*
%TO.P,PCM,1*%
%TO.N,Board_8-Net-(J1-Pad1)*%
X81680011Y-89625011D03*
D13*
%TO.P,PCM,2*%
%TO.N,Board_8-Net-(J1-Pad2)*%
X84220011Y-89625011D03*
%TD*%
D14*
%TO.N,Board_0-Net-(J1-Pad1)*%
X48679997Y-40624997D02*
X48679997Y-57769997D01*
%TO.N,Board_0-Net-(J1-Pad2)*%
X51219997Y-40624997D02*
X51219997Y-57769997D01*
%TO.N,Board_1-Net-(J1-Pad1)*%
X65180004Y-40624997D02*
X65180004Y-57769997D01*
%TO.N,Board_1-Net-(J1-Pad2)*%
X67720004Y-40624997D02*
X67720004Y-57769997D01*
%TO.N,Board_2-Net-(J1-Pad1)*%
X81680011Y-40624997D02*
X81680011Y-57769997D01*
%TO.N,Board_2-Net-(J1-Pad2)*%
X84220011Y-40624997D02*
X84220011Y-57769997D01*
%TO.N,Board_3-Net-(J1-Pad1)*%
X48679997Y-65125004D02*
X48679997Y-82270004D01*
%TO.N,Board_3-Net-(J1-Pad2)*%
X51219997Y-65125004D02*
X51219997Y-82270004D01*
%TO.N,Board_4-Net-(J1-Pad1)*%
X65180004Y-65125004D02*
X65180004Y-82270004D01*
%TO.N,Board_4-Net-(J1-Pad2)*%
X67720004Y-65125004D02*
X67720004Y-82270004D01*
%TO.N,Board_5-Net-(J1-Pad1)*%
X81680011Y-65125004D02*
X81680011Y-82270004D01*
%TO.N,Board_5-Net-(J1-Pad2)*%
X84220011Y-65125004D02*
X84220011Y-82270004D01*
%TO.N,Board_6-Net-(J1-Pad1)*%
X48679997Y-89625011D02*
X48679997Y-106770011D01*
%TO.N,Board_6-Net-(J1-Pad2)*%
X51219997Y-89625011D02*
X51219997Y-106770011D01*
%TO.N,Board_7-Net-(J1-Pad1)*%
X65180004Y-89625011D02*
X65180004Y-106770011D01*
%TO.N,Board_7-Net-(J1-Pad2)*%
X67720004Y-89625011D02*
X67720004Y-106770011D01*
%TO.N,Board_8-Net-(J1-Pad1)*%
X81680011Y-89625011D02*
X81680011Y-106770011D01*
%TO.N,Board_8-Net-(J1-Pad2)*%
X84220011Y-89625011D02*
X84220011Y-106770011D01*
%TD*%
M02*
