%TF.GenerationSoftware,KiCad,Pcbnew,(6.0.0)*%
%TF.CreationDate,2021-12-29T03:16:53-05:00*%
%TF.ProjectId,panel,70616e65-6c2e-46b6-9963-61645f706362,rev?*%
%TF.SameCoordinates,Original*%
%TF.FileFunction,Soldermask,Bot*%
%TF.FilePolarity,Negative*%
%FSLAX46Y46*%
G04 Gerber Fmt 4.6, Leading zero omitted, Abs format (unit mm)*
G04 Created by KiCad (PCBNEW (6.0.0)) date 2021-12-29 03:16:53*
%MOMM*%
%LPD*%
G01*
G04 APERTURE LIST*
%ADD10C,0.500000*%
%ADD11R,1.700000X1.700000*%
%ADD12O,1.700000X1.700000*%
G04 APERTURE END LIST*
D10*
%TO.C,REF\u002A\u002A*%
X73749000Y-104250011D03*
%TD*%
%TO.C,REF\u002A\u002A*%
X73748999Y-81750003D03*
%TD*%
%TO.C,REF\u002A\u002A*%
X57248999Y-106250011D03*
%TD*%
%TO.C,REF\u002A\u002A*%
X47999997Y-85749000D03*
%TD*%
D11*
%TO.C,PCM*%
X48679997Y-65125004D03*
D12*
X51219997Y-65125004D03*
%TD*%
D10*
%TO.C,REF\u002A\u002A*%
X82000011Y-63251002D03*
%TD*%
%TO.C,REF\u002A\u002A*%
X75751001Y-44749996D03*
%TD*%
%TO.C,REF\u002A\u002A*%
X73749003Y-92750011D03*
%TD*%
D11*
%TO.C,J1*%
X48679997Y-106770011D03*
D12*
X51219997Y-106770011D03*
%TD*%
D10*
%TO.C,REF\u002A\u002A*%
X57248999Y-55249997D03*
%TD*%
%TO.C,REF\u002A\u002A*%
X48999997Y-87751006D03*
%TD*%
%TO.C,REF\u002A\u002A*%
X59251000Y-92750011D03*
%TD*%
%TO.C,REF\u002A\u002A*%
X73749003Y-42749997D03*
%TD*%
%TO.C,REF\u002A\u002A*%
X59251003Y-54249997D03*
%TD*%
%TO.C,REF\u002A\u002A*%
X65500004Y-63251002D03*
%TD*%
%TO.C,REF\u002A\u002A*%
X75751000Y-41749997D03*
%TD*%
%TO.C,REF\u002A\u002A*%
X59251000Y-67250004D03*
%TD*%
%TO.C,REF\u002A\u002A*%
X81000011Y-61248999D03*
%TD*%
%TO.C,REF\u002A\u002A*%
X57248996Y-90750011D03*
%TD*%
%TO.C,REF\u002A\u002A*%
X59251000Y-66250004D03*
%TD*%
%TO.C,REF\u002A\u002A*%
X75751011Y-107250010D03*
%TD*%
%TO.C,REF\u002A\u002A*%
X75750999Y-90750011D03*
%TD*%
D11*
%TO.C,J1*%
X65180004Y-82270004D03*
D12*
X67720004Y-82270004D03*
%TD*%
D10*
%TO.C,REF\u002A\u002A*%
X84000010Y-63251001D03*
%TD*%
%TO.C,REF\u002A\u002A*%
X75751000Y-42749997D03*
%TD*%
%TO.C,REF\u002A\u002A*%
X75751010Y-105250011D03*
%TD*%
%TO.C,REF\u002A\u002A*%
X50999996Y-61248998D03*
%TD*%
%TO.C,REF\u002A\u002A*%
X75751001Y-92750011D03*
%TD*%
%TO.C,REF\u002A\u002A*%
X59251000Y-94750010D03*
%TD*%
%TO.C,REF\u002A\u002A*%
X57248999Y-104250011D03*
%TD*%
%TO.C,REF\u002A\u002A*%
X75751002Y-45749996D03*
%TD*%
D11*
%TO.C,PCM*%
X65180004Y-40624997D03*
D12*
X67720004Y-40624997D03*
%TD*%
D10*
%TO.C,REF\u002A\u002A*%
X84000010Y-85749002D03*
%TD*%
%TO.C,REF\u002A\u002A*%
X67500003Y-61248998D03*
%TD*%
D11*
%TO.C,PCM*%
X81680011Y-65125004D03*
D12*
X84220011Y-65125004D03*
%TD*%
D10*
%TO.C,REF\u002A\u002A*%
X59251004Y-81750003D03*
%TD*%
%TO.C,REF\u002A\u002A*%
X57248999Y-58249997D03*
%TD*%
%TO.C,REF\u002A\u002A*%
X57248997Y-70250003D03*
%TD*%
%TO.C,REF\u002A\u002A*%
X73749000Y-78750004D03*
%TD*%
%TO.C,REF\u002A\u002A*%
X73749003Y-68250004D03*
%TD*%
%TO.C,REF\u002A\u002A*%
X65500004Y-85749001D03*
%TD*%
%TO.C,REF\u002A\u002A*%
X75751010Y-106250010D03*
%TD*%
%TO.C,REF\u002A\u002A*%
X75751009Y-55249997D03*
%TD*%
D11*
%TO.C,J1*%
X81680011Y-106770011D03*
D12*
X84220011Y-106770011D03*
%TD*%
D10*
%TO.C,REF\u002A\u002A*%
X57248996Y-41749997D03*
%TD*%
%TO.C,REF\u002A\u002A*%
X75751010Y-80750004D03*
%TD*%
%TO.C,REF\u002A\u002A*%
X68500003Y-61248997D03*
%TD*%
%TO.C,REF\u002A\u002A*%
X73749003Y-45749996D03*
%TD*%
%TO.C,REF\u002A\u002A*%
X82000011Y-85749001D03*
%TD*%
%TO.C,REF\u002A\u002A*%
X59251003Y-104250011D03*
%TD*%
%TO.C,REF\u002A\u002A*%
X59251000Y-45749996D03*
%TD*%
%TO.C,REF\u002A\u002A*%
X57248999Y-105250011D03*
%TD*%
%TO.C,REF\u002A\u002A*%
X57248996Y-66250004D03*
%TD*%
%TO.C,REF\u002A\u002A*%
X51999996Y-63251000D03*
%TD*%
%TO.C,REF\u002A\u002A*%
X66500004Y-61248998D03*
%TD*%
%TO.C,REF\u002A\u002A*%
X49999997Y-85749001D03*
%TD*%
%TO.C,REF\u002A\u002A*%
X75751001Y-68250004D03*
%TD*%
%TO.C,REF\u002A\u002A*%
X75751009Y-79750004D03*
%TD*%
%TO.C,REF\u002A\u002A*%
X68500003Y-87751002D03*
%TD*%
%TO.C,REF\u002A\u002A*%
X82000011Y-61248998D03*
%TD*%
%TO.C,REF\u002A\u002A*%
X75750999Y-66250004D03*
%TD*%
%TO.C,REF\u002A\u002A*%
X73749003Y-70250004D03*
%TD*%
D11*
%TO.C,J1*%
X48679997Y-82270004D03*
D12*
X51219997Y-82270004D03*
%TD*%
D10*
%TO.C,REF\u002A\u002A*%
X73749000Y-54249997D03*
%TD*%
%TO.C,REF\u002A\u002A*%
X51999996Y-85749003D03*
%TD*%
%TO.C,REF\u002A\u002A*%
X73749000Y-56249997D03*
%TD*%
%TO.C,REF\u002A\u002A*%
X59251000Y-42749997D03*
%TD*%
%TO.C,REF\u002A\u002A*%
X67500003Y-85749002D03*
%TD*%
%TO.C,REF\u002A\u002A*%
X57248999Y-57249997D03*
%TD*%
%TO.C,REF\u002A\u002A*%
X67500003Y-87751004D03*
%TD*%
%TO.C,REF\u002A\u002A*%
X85000010Y-87751002D03*
%TD*%
%TO.C,REF\u002A\u002A*%
X57248997Y-94750010D03*
%TD*%
%TO.C,REF\u002A\u002A*%
X59250999Y-90750011D03*
%TD*%
%TO.C,REF\u002A\u002A*%
X57248997Y-92750011D03*
%TD*%
%TO.C,REF\u002A\u002A*%
X64500004Y-85749000D03*
%TD*%
%TO.C,REF\u002A\u002A*%
X50999996Y-63251001D03*
%TD*%
%TO.C,REF\u002A\u002A*%
X83000011Y-61248998D03*
%TD*%
%TO.C,REF\u002A\u002A*%
X75751002Y-94750010D03*
%TD*%
%TO.C,REF\u002A\u002A*%
X84000010Y-87751004D03*
%TD*%
%TO.C,REF\u002A\u002A*%
X50999996Y-85749002D03*
%TD*%
%TO.C,REF\u002A\u002A*%
X57248997Y-93750010D03*
%TD*%
%TO.C,REF\u002A\u002A*%
X57248997Y-43749997D03*
%TD*%
%TO.C,REF\u002A\u002A*%
X68500003Y-63251000D03*
%TD*%
%TO.C,REF\u002A\u002A*%
X73749003Y-94750011D03*
%TD*%
D11*
%TO.C,J1*%
X65180004Y-106770011D03*
D12*
X67720004Y-106770011D03*
%TD*%
D10*
%TO.C,REF\u002A\u002A*%
X59251003Y-78750004D03*
%TD*%
%TO.C,REF\u002A\u002A*%
X75751008Y-54249997D03*
%TD*%
%TO.C,REF\u002A\u002A*%
X59251000Y-68250004D03*
%TD*%
D11*
%TO.C,J1*%
X81680011Y-82270004D03*
D12*
X84220011Y-82270004D03*
%TD*%
D10*
%TO.C,REF\u002A\u002A*%
X49999997Y-63251002D03*
%TD*%
%TO.C,REF\u002A\u002A*%
X73749000Y-80750004D03*
%TD*%
%TO.C,REF\u002A\u002A*%
X75751001Y-69250003D03*
%TD*%
%TO.C,REF\u002A\u002A*%
X84000010Y-61248998D03*
%TD*%
%TO.C,REF\u002A\u002A*%
X75751010Y-57249996D03*
%TD*%
%TO.C,REF\u002A\u002A*%
X50999996Y-87751004D03*
%TD*%
%TO.C,REF\u002A\u002A*%
X73749003Y-43749997D03*
%TD*%
%TO.C,REF\u002A\u002A*%
X83000011Y-63251001D03*
%TD*%
%TO.C,REF\u002A\u002A*%
X64500004Y-61248999D03*
%TD*%
%TO.C,REF\u002A\u002A*%
X57248996Y-67250004D03*
%TD*%
%TO.C,REF\u002A\u002A*%
X75751008Y-103250011D03*
%TD*%
%TO.C,REF\u002A\u002A*%
X57248999Y-54249997D03*
%TD*%
%TO.C,REF\u002A\u002A*%
X47999997Y-87751008D03*
%TD*%
%TO.C,REF\u002A\u002A*%
X48999997Y-61248998D03*
%TD*%
%TO.C,REF\u002A\u002A*%
X57248997Y-68250004D03*
%TD*%
%TO.C,REF\u002A\u002A*%
X75751008Y-78750004D03*
%TD*%
%TO.C,REF\u002A\u002A*%
X59251003Y-79750004D03*
%TD*%
%TO.C,REF\u002A\u002A*%
X59251003Y-105250011D03*
%TD*%
%TO.C,REF\u002A\u002A*%
X57248996Y-91750011D03*
%TD*%
%TO.C,REF\u002A\u002A*%
X59251004Y-57249996D03*
%TD*%
%TO.C,REF\u002A\u002A*%
X65500004Y-87751006D03*
%TD*%
%TO.C,REF\u002A\u002A*%
X57248999Y-56249997D03*
%TD*%
%TO.C,REF\u002A\u002A*%
X75751010Y-81750003D03*
%TD*%
%TO.C,REF\u002A\u002A*%
X57248999Y-81750004D03*
%TD*%
%TO.C,REF\u002A\u002A*%
X73748999Y-58249996D03*
%TD*%
%TO.C,REF\u002A\u002A*%
X73749003Y-91750011D03*
%TD*%
%TO.C,REF\u002A\u002A*%
X59251000Y-43749997D03*
%TD*%
%TO.C,REF\u002A\u002A*%
X59251000Y-41749997D03*
%TD*%
%TO.C,REF\u002A\u002A*%
X66500004Y-63251001D03*
%TD*%
%TO.C,REF\u002A\u002A*%
X66500004Y-87751005D03*
%TD*%
%TO.C,REF\u002A\u002A*%
X49999997Y-87751005D03*
%TD*%
%TO.C,REF\u002A\u002A*%
X82000011Y-87751006D03*
%TD*%
%TO.C,REF\u002A\u002A*%
X59251004Y-106250010D03*
%TD*%
%TO.C,REF\u002A\u002A*%
X73748999Y-106250010D03*
%TD*%
%TO.C,REF\u002A\u002A*%
X73749000Y-55249997D03*
%TD*%
%TO.C,REF\u002A\u002A*%
X83000011Y-85749002D03*
%TD*%
%TO.C,REF\u002A\u002A*%
X73749000Y-105250011D03*
%TD*%
%TO.C,REF\u002A\u002A*%
X57248999Y-79750004D03*
%TD*%
%TO.C,REF\u002A\u002A*%
X59251000Y-69250003D03*
%TD*%
%TO.C,REF\u002A\u002A*%
X66500004Y-85749002D03*
%TD*%
%TO.C,REF\u002A\u002A*%
X73749003Y-44749997D03*
%TD*%
D11*
%TO.C,PCM*%
X65180004Y-89625011D03*
D12*
X67720004Y-89625011D03*
%TD*%
D10*
%TO.C,REF\u002A\u002A*%
X49999997Y-61248998D03*
%TD*%
%TO.C,REF\u002A\u002A*%
X48999997Y-85749001D03*
%TD*%
%TO.C,REF\u002A\u002A*%
X67500003Y-63251001D03*
%TD*%
%TO.C,REF\u002A\u002A*%
X73748999Y-82750003D03*
%TD*%
%TO.C,REF\u002A\u002A*%
X73749003Y-41749997D03*
%TD*%
%TO.C,REF\u002A\u002A*%
X73749003Y-69250004D03*
%TD*%
%TO.C,REF\u002A\u002A*%
X57248996Y-42749997D03*
%TD*%
%TO.C,REF\u002A\u002A*%
X73749000Y-79750004D03*
%TD*%
%TO.C,REF\u002A\u002A*%
X81000011Y-63251003D03*
%TD*%
%TO.C,REF\u002A\u002A*%
X81000011Y-87751008D03*
%TD*%
%TO.C,REF\u002A\u002A*%
X57248999Y-80750004D03*
%TD*%
%TO.C,REF\u002A\u002A*%
X75751001Y-43749997D03*
%TD*%
%TO.C,REF\u002A\u002A*%
X68500003Y-85749003D03*
%TD*%
%TO.C,REF\u002A\u002A*%
X57248997Y-69250003D03*
%TD*%
%TO.C,REF\u002A\u002A*%
X57248997Y-45749996D03*
%TD*%
%TO.C,REF\u002A\u002A*%
X59251004Y-58249996D03*
%TD*%
%TO.C,REF\u002A\u002A*%
X73749003Y-66250004D03*
%TD*%
%TO.C,REF\u002A\u002A*%
X59251000Y-70250003D03*
%TD*%
%TO.C,REF\u002A\u002A*%
X59251000Y-91750011D03*
%TD*%
%TO.C,REF\u002A\u002A*%
X73749003Y-93750011D03*
%TD*%
D11*
%TO.C,PCM*%
X81680011Y-40624997D03*
D12*
X84220011Y-40624997D03*
%TD*%
D10*
%TO.C,REF\u002A\u002A*%
X75751011Y-58249996D03*
%TD*%
%TO.C,REF\u002A\u002A*%
X57248999Y-107250011D03*
%TD*%
%TO.C,REF\u002A\u002A*%
X59251000Y-93750011D03*
%TD*%
%TO.C,REF\u002A\u002A*%
X81000011Y-85749000D03*
%TD*%
%TO.C,REF\u002A\u002A*%
X65500004Y-61248998D03*
%TD*%
%TO.C,REF\u002A\u002A*%
X48999997Y-63251002D03*
%TD*%
%TO.C,REF\u002A\u002A*%
X75751002Y-70250003D03*
%TD*%
%TO.C,REF\u002A\u002A*%
X47999997Y-61248999D03*
%TD*%
%TO.C,REF\u002A\u002A*%
X57248997Y-44749996D03*
%TD*%
%TO.C,REF\u002A\u002A*%
X73749003Y-90750011D03*
%TD*%
%TO.C,REF\u002A\u002A*%
X83000011Y-87751005D03*
%TD*%
D11*
%TO.C,PCM*%
X48679997Y-89625011D03*
D12*
X51219997Y-89625011D03*
%TD*%
D10*
%TO.C,REF\u002A\u002A*%
X85000010Y-61248997D03*
%TD*%
%TO.C,REF\u002A\u002A*%
X75751001Y-93750010D03*
%TD*%
%TO.C,REF\u002A\u002A*%
X75751011Y-82750003D03*
%TD*%
%TO.C,REF\u002A\u002A*%
X59251003Y-55249997D03*
%TD*%
%TO.C,REF\u002A\u002A*%
X73748999Y-57249996D03*
%TD*%
D11*
%TO.C,PCM*%
X65180004Y-65125004D03*
D12*
X67720004Y-65125004D03*
%TD*%
D10*
%TO.C,REF\u002A\u002A*%
X73749001Y-103250011D03*
%TD*%
%TO.C,REF\u002A\u002A*%
X75751009Y-104250011D03*
%TD*%
%TO.C,REF\u002A\u002A*%
X59251000Y-44749997D03*
%TD*%
%TO.C,REF\u002A\u002A*%
X59251003Y-56249997D03*
%TD*%
D11*
%TO.C,PCM*%
X48679997Y-40624997D03*
D12*
X51219997Y-40624997D03*
%TD*%
D10*
%TO.C,REF\u002A\u002A*%
X64500004Y-63251003D03*
%TD*%
%TO.C,REF\u002A\u002A*%
X57248999Y-103250011D03*
%TD*%
%TO.C,REF\u002A\u002A*%
X75751000Y-91750011D03*
%TD*%
%TO.C,REF\u002A\u002A*%
X64500004Y-87751008D03*
%TD*%
D11*
%TO.C,J1*%
X48679997Y-57769997D03*
D12*
X51219997Y-57769997D03*
%TD*%
D10*
%TO.C,REF\u002A\u002A*%
X85000010Y-85749003D03*
%TD*%
%TO.C,REF\u002A\u002A*%
X47999997Y-63251003D03*
%TD*%
%TO.C,REF\u002A\u002A*%
X75751010Y-56249997D03*
%TD*%
%TO.C,REF\u002A\u002A*%
X59251003Y-80750004D03*
%TD*%
%TO.C,REF\u002A\u002A*%
X59251004Y-82750003D03*
%TD*%
%TO.C,REF\u002A\u002A*%
X57248999Y-78750004D03*
%TD*%
%TO.C,REF\u002A\u002A*%
X73749003Y-67250004D03*
%TD*%
D11*
%TO.C,J1*%
X65180004Y-57769997D03*
D12*
X67720004Y-57769997D03*
%TD*%
D11*
%TO.C,J1*%
X81680011Y-57769997D03*
D12*
X84220011Y-57769997D03*
%TD*%
D10*
%TO.C,REF\u002A\u002A*%
X75751000Y-67250004D03*
%TD*%
%TO.C,REF\u002A\u002A*%
X51999996Y-61248997D03*
%TD*%
%TO.C,REF\u002A\u002A*%
X73748999Y-107250010D03*
%TD*%
%TO.C,REF\u002A\u002A*%
X59251003Y-103250011D03*
%TD*%
%TO.C,REF\u002A\u002A*%
X51999996Y-87751002D03*
%TD*%
%TO.C,REF\u002A\u002A*%
X59251004Y-107250010D03*
%TD*%
%TO.C,REF\u002A\u002A*%
X85000010Y-63251000D03*
%TD*%
D11*
%TO.C,PCM*%
X81680011Y-89625011D03*
D12*
X84220011Y-89625011D03*
%TD*%
D10*
%TO.C,REF\u002A\u002A*%
X57248999Y-82750004D03*
%TD*%
M02*
