M48
; DRILL file {KiCad (6.0.0)} date Wed Dec 29 03:18:01 2021
; FORMAT={-:-/ absolute / metric / decimal}
; #@! TF.CreationDate,2021-12-29T03:18:01-05:00
; #@! TF.GenerationSoftware,Kicad,Pcbnew,(6.0.0)
; #@! TF.FileFunction,Plated,1,2,PTH
FMAT,2
METRIC
; #@! TA.AperFunction,Plated,PTH,ComponentDrill
T1C1.000
%
G90
G05
T1
X48.68Y-40.625
X48.68Y-57.77
X48.68Y-65.125
X48.68Y-82.27
X48.68Y-89.625
X48.68Y-106.77
X51.22Y-40.625
X51.22Y-57.77
X51.22Y-65.125
X51.22Y-82.27
X51.22Y-89.625
X51.22Y-106.77
X65.18Y-40.625
X65.18Y-57.77
X65.18Y-65.125
X65.18Y-82.27
X65.18Y-89.625
X65.18Y-106.77
X67.72Y-40.625
X67.72Y-57.77
X67.72Y-65.125
X67.72Y-82.27
X67.72Y-89.625
X67.72Y-106.77
X81.68Y-40.625
X81.68Y-57.77
X81.68Y-65.125
X81.68Y-82.27
X81.68Y-89.625
X81.68Y-106.77
X84.22Y-40.625
X84.22Y-57.77
X84.22Y-65.125
X84.22Y-82.27
X84.22Y-89.625
X84.22Y-106.77
T0
M30
